<mxfile host="app.diagrams.net" modified="2021-02-08T02:37:07.316Z" agent="5.0 (X11; Linux x86_64) AppleWebKit/537.36 (KHTML, like Gecko) Chrome/88.0.4324.96 Safari/537.36" etag="NkhunnMHeJFZjHpBLoeO" version="14.2.9" type="github">
  <diagram id="crCtFzUjv3eIEk9cUG39" name="Page-1">
    <mxGraphModel dx="1418" dy="801" grid="1" gridSize="10" guides="1" tooltips="1" connect="1" arrows="1" fold="1" page="1" pageScale="1" pageWidth="850" pageHeight="1100" math="0" shadow="0">
      <root>
        <mxCell id="0" />
        <mxCell id="1" parent="0" />
        <mxCell id="ModlqO_BOkCy8kCQLWkp-9" value="" style="rounded=0;whiteSpace=wrap;html=1;" parent="1" vertex="1">
          <mxGeometry x="240" y="240" width="380" height="170" as="geometry" />
        </mxCell>
        <mxCell id="ModlqO_BOkCy8kCQLWkp-7" value="" style="rounded=0;whiteSpace=wrap;html=1;" parent="1" vertex="1">
          <mxGeometry x="260" y="275" width="330" height="110" as="geometry" />
        </mxCell>
        <mxCell id="ModlqO_BOkCy8kCQLWkp-4" style="edgeStyle=orthogonalEdgeStyle;rounded=0;orthogonalLoop=1;jettySize=auto;html=1;exitX=1;exitY=0.5;exitDx=0;exitDy=0;entryX=0;entryY=0.5;entryDx=0;entryDy=0;curved=1;" parent="1" source="ModlqO_BOkCy8kCQLWkp-1" target="ModlqO_BOkCy8kCQLWkp-2" edge="1">
          <mxGeometry relative="1" as="geometry" />
        </mxCell>
        <mxCell id="ModlqO_BOkCy8kCQLWkp-1" value="Domain" style="ellipse;whiteSpace=wrap;html=1;aspect=fixed;" parent="1" vertex="1">
          <mxGeometry x="278" y="290" width="80" height="80" as="geometry" />
        </mxCell>
        <mxCell id="ModlqO_BOkCy8kCQLWkp-2" value="Domain" style="ellipse;whiteSpace=wrap;html=1;aspect=fixed;" parent="1" vertex="1">
          <mxGeometry x="493" y="290" width="80" height="80" as="geometry" />
        </mxCell>
        <mxCell id="ModlqO_BOkCy8kCQLWkp-5" value="Event" style="text;html=1;strokeColor=none;fillColor=none;align=center;verticalAlign=middle;whiteSpace=wrap;rounded=0;" parent="1" vertex="1">
          <mxGeometry x="405" y="300" width="40" height="20" as="geometry" />
        </mxCell>
        <mxCell id="ModlqO_BOkCy8kCQLWkp-8" value="Domain Level" style="text;html=1;align=center;verticalAlign=middle;resizable=0;points=[];autosize=1;" parent="1" vertex="1">
          <mxGeometry x="260" y="250" width="90" height="20" as="geometry" />
        </mxCell>
        <mxCell id="ModlqO_BOkCy8kCQLWkp-10" value="System Events" style="text;html=1;align=center;verticalAlign=middle;resizable=0;points=[];autosize=1;" parent="1" vertex="1">
          <mxGeometry x="235" y="220" width="100" height="20" as="geometry" />
        </mxCell>
        <mxCell id="ModlqO_BOkCy8kCQLWkp-11" value="&lt;font color=&quot;#ff0000&quot;&gt;&lt;b&gt;CDC&lt;/b&gt;&lt;/font&gt;" style="text;html=1;align=center;verticalAlign=middle;resizable=0;points=[];autosize=1;" parent="1" vertex="1">
          <mxGeometry x="545" y="250" width="40" height="20" as="geometry" />
        </mxCell>
      </root>
    </mxGraphModel>
  </diagram>
</mxfile>
